<mxfile host="Electron" modified="2024-04-02T13:35:05.828Z" agent="Mozilla/5.0 (Windows NT 10.0; Win64; x64) AppleWebKit/537.36 (KHTML, like Gecko) draw.io/23.1.5 Chrome/120.0.6099.109 Electron/28.1.0 Safari/537.36" etag="ZGoiFfj6yOE7MV4H2xUH" version="23.1.5" type="device">
  <diagram name="Seite-1" id="mB5_Q6jv6jKe1LMcq4tr">
    <mxGraphModel dx="1616" dy="1653" grid="1" gridSize="10" guides="1" tooltips="1" connect="1" arrows="1" fold="1" page="1" pageScale="1" pageWidth="1169" pageHeight="827" math="0" shadow="0">
      <root>
        <mxCell id="0" />
        <mxCell id="1" parent="0" />
        <mxCell id="6tIuohvB9r3zfmfPvZja-19" value="" style="rounded=0;orthogonalLoop=1;jettySize=auto;html=1;endArrow=none;endFill=0;strokeWidth=2;strokeColor=#000000;" parent="1" edge="1">
          <mxGeometry relative="1" as="geometry">
            <mxPoint x="880" y="270" as="sourcePoint" />
            <mxPoint x="830" y="350" as="targetPoint" />
          </mxGeometry>
        </mxCell>
        <mxCell id="6tIuohvB9r3zfmfPvZja-18" value="" style="rounded=0;orthogonalLoop=1;jettySize=auto;html=1;endArrow=none;endFill=0;strokeWidth=2;strokeColor=#000000;" parent="1" edge="1">
          <mxGeometry relative="1" as="geometry">
            <mxPoint x="480" y="390" as="sourcePoint" />
            <mxPoint x="500" y="480" as="targetPoint" />
          </mxGeometry>
        </mxCell>
        <mxCell id="7DgucBLrK966jWD4chxg-1" value="Verwaltungsakt" style="endArrow=classic;html=1;rounded=0;labelPosition=right;verticalLabelPosition=middle;align=left;verticalAlign=middle;fontSize=24;fontStyle=1;fontColor=#000000;labelBackgroundColor=none;strokeColor=#000000;strokeWidth=2;" parent="1" edge="1">
          <mxGeometry x="1" width="50" height="50" relative="1" as="geometry">
            <mxPoint x="585" y="500" as="sourcePoint" />
            <mxPoint x="585" y="100" as="targetPoint" />
            <mxPoint as="offset" />
          </mxGeometry>
        </mxCell>
        <mxCell id="7DgucBLrK966jWD4chxg-2" value="Jahr" style="endArrow=classic;html=1;rounded=0;fontSize=24;fontStyle=1;fontColor=#000000;labelBackgroundColor=none;strokeColor=#000000;strokeWidth=2;labelPosition=left;verticalLabelPosition=bottom;align=right;verticalAlign=top;" parent="1" edge="1">
          <mxGeometry x="1" width="50" height="50" relative="1" as="geometry">
            <mxPoint x="585" y="500" as="sourcePoint" />
            <mxPoint x="1040" y="560" as="targetPoint" />
            <mxPoint as="offset" />
          </mxGeometry>
        </mxCell>
        <mxCell id="7DgucBLrK966jWD4chxg-3" value="Veranstaltung" style="endArrow=classic;html=1;rounded=0;fontSize=24;fontStyle=1;fontColor=#000000;labelBackgroundColor=none;strokeColor=#000000;strokeWidth=2;labelPosition=right;verticalLabelPosition=middle;align=left;verticalAlign=middle;spacingLeft=20;" parent="1" edge="1">
          <mxGeometry x="1" width="50" height="50" relative="1" as="geometry">
            <mxPoint x="585" y="500" as="sourcePoint" />
            <mxPoint x="310" y="680" as="targetPoint" />
            <mxPoint as="offset" />
          </mxGeometry>
        </mxCell>
        <mxCell id="7DgucBLrK966jWD4chxg-9" value="[0.1, 0.2, 0.3]" style="endArrow=oval;html=1;fontSize=24;fontColor=#000000;endFill=1;endSize=24;strokeWidth=2;labelBackgroundColor=none;verticalAlign=bottom;fontStyle=1;strokeColor=#418AB3;rounded=0;labelPosition=center;verticalLabelPosition=top;align=center;" parent="1" edge="1">
          <mxGeometry x="1" y="103" relative="1" as="geometry">
            <mxPoint x="500" y="500" as="sourcePoint" />
            <mxPoint x="504" y="490" as="targetPoint" />
            <mxPoint x="72" y="-62" as="offset" />
          </mxGeometry>
        </mxCell>
        <mxCell id="7DgucBLrK966jWD4chxg-10" value="[0.4, 0.3, 0.2]" style="endArrow=oval;html=1;fontSize=24;fontColor=#000000;endFill=1;endSize=24;strokeWidth=2;labelBackgroundColor=none;verticalAlign=bottom;fontStyle=1;strokeColor=#A6B727;rounded=0;labelPosition=center;verticalLabelPosition=top;align=center;" parent="1" edge="1">
          <mxGeometry x="-1" y="86" relative="1" as="geometry">
            <mxPoint x="830" y="340" as="sourcePoint" />
            <mxPoint x="830" y="350" as="targetPoint" />
            <mxPoint x="-36" y="-70" as="offset" />
          </mxGeometry>
        </mxCell>
        <mxCell id="fouqBStlk3huJytkR0tP-1" value="" style="endArrow=oval;html=1;fontSize=24;fontColor=#000000;endFill=1;endSize=24;strokeWidth=2;labelBackgroundColor=none;verticalAlign=bottom;fontStyle=1;strokeColor=#418AB3;rounded=0;labelPosition=center;verticalLabelPosition=top;align=center;" edge="1" parent="1">
          <mxGeometry x="1" y="103" relative="1" as="geometry">
            <mxPoint x="460" y="480" as="sourcePoint" />
            <mxPoint x="464" y="470" as="targetPoint" />
            <mxPoint x="72" y="-62" as="offset" />
          </mxGeometry>
        </mxCell>
        <mxCell id="fouqBStlk3huJytkR0tP-2" value="" style="endArrow=oval;html=1;fontSize=24;fontColor=#000000;endFill=1;endSize=24;strokeWidth=2;labelBackgroundColor=none;verticalAlign=bottom;fontStyle=1;strokeColor=#418AB3;rounded=0;labelPosition=center;verticalLabelPosition=top;align=center;opacity=50;" edge="1" parent="1">
          <mxGeometry x="1" y="103" relative="1" as="geometry">
            <mxPoint x="560" y="440" as="sourcePoint" />
            <mxPoint x="564" y="430" as="targetPoint" />
            <mxPoint x="72" y="-62" as="offset" />
          </mxGeometry>
        </mxCell>
        <mxCell id="fouqBStlk3huJytkR0tP-3" value="" style="endArrow=oval;html=1;fontSize=24;fontColor=#000000;endFill=1;endSize=24;strokeWidth=2;labelBackgroundColor=none;verticalAlign=bottom;fontStyle=1;strokeColor=#418AB3;rounded=0;labelPosition=center;verticalLabelPosition=top;align=center;" edge="1" parent="1">
          <mxGeometry x="1" y="103" relative="1" as="geometry">
            <mxPoint x="460" y="530" as="sourcePoint" />
            <mxPoint x="464" y="520" as="targetPoint" />
            <mxPoint x="72" y="-62" as="offset" />
          </mxGeometry>
        </mxCell>
        <mxCell id="fouqBStlk3huJytkR0tP-4" value="" style="endArrow=oval;html=1;fontSize=24;fontColor=#000000;endFill=1;endSize=24;strokeWidth=2;labelBackgroundColor=none;verticalAlign=bottom;fontStyle=1;strokeColor=#418AB3;rounded=0;labelPosition=center;verticalLabelPosition=top;align=center;opacity=50;" edge="1" parent="1">
          <mxGeometry x="1" y="103" relative="1" as="geometry">
            <mxPoint x="510" y="414" as="sourcePoint" />
            <mxPoint x="514" y="404" as="targetPoint" />
            <mxPoint x="72" y="-62" as="offset" />
          </mxGeometry>
        </mxCell>
        <mxCell id="fouqBStlk3huJytkR0tP-5" value="" style="endArrow=oval;html=1;fontSize=24;fontColor=#000000;endFill=1;endSize=24;strokeWidth=2;labelBackgroundColor=none;verticalAlign=bottom;fontStyle=1;strokeColor=#418AB3;rounded=0;labelPosition=center;verticalLabelPosition=top;align=center;opacity=25;" edge="1" parent="1">
          <mxGeometry x="1" y="103" relative="1" as="geometry">
            <mxPoint x="550" y="490" as="sourcePoint" />
            <mxPoint x="554" y="480" as="targetPoint" />
            <mxPoint x="72" y="-62" as="offset" />
          </mxGeometry>
        </mxCell>
        <mxCell id="fouqBStlk3huJytkR0tP-6" value="" style="endArrow=oval;html=1;fontSize=24;fontColor=#000000;endFill=1;endSize=24;strokeWidth=2;labelBackgroundColor=none;verticalAlign=bottom;fontStyle=1;strokeColor=#A6B727;rounded=0;labelPosition=center;verticalLabelPosition=top;align=center;" edge="1" parent="1">
          <mxGeometry x="-1" y="86" relative="1" as="geometry">
            <mxPoint x="760" y="360" as="sourcePoint" />
            <mxPoint x="760" y="370" as="targetPoint" />
            <mxPoint x="-36" y="-70" as="offset" />
          </mxGeometry>
        </mxCell>
        <mxCell id="fouqBStlk3huJytkR0tP-7" value="" style="endArrow=oval;html=1;fontSize=24;fontColor=#000000;endFill=1;endSize=24;strokeWidth=2;labelBackgroundColor=none;verticalAlign=bottom;fontStyle=1;strokeColor=#A6B727;rounded=0;labelPosition=center;verticalLabelPosition=top;align=center;" edge="1" parent="1">
          <mxGeometry x="-1" y="86" relative="1" as="geometry">
            <mxPoint x="780" y="320" as="sourcePoint" />
            <mxPoint x="780" y="330" as="targetPoint" />
            <mxPoint x="-36" y="-70" as="offset" />
          </mxGeometry>
        </mxCell>
        <mxCell id="fouqBStlk3huJytkR0tP-8" value="" style="endArrow=oval;html=1;fontSize=24;fontColor=#000000;endFill=1;endSize=24;strokeWidth=2;labelBackgroundColor=none;verticalAlign=bottom;fontStyle=1;strokeColor=#A6B727;rounded=0;labelPosition=center;verticalLabelPosition=top;align=center;opacity=50;" edge="1" parent="1">
          <mxGeometry x="-1" y="86" relative="1" as="geometry">
            <mxPoint x="820" y="420" as="sourcePoint" />
            <mxPoint x="820" y="430" as="targetPoint" />
            <mxPoint x="-36" y="-70" as="offset" />
          </mxGeometry>
        </mxCell>
        <mxCell id="fouqBStlk3huJytkR0tP-9" value="" style="endArrow=oval;html=1;fontSize=24;fontColor=#000000;endFill=1;endSize=24;strokeWidth=2;labelBackgroundColor=none;verticalAlign=bottom;fontStyle=1;strokeColor=#A6B727;rounded=0;labelPosition=center;verticalLabelPosition=top;align=center;opacity=50;" edge="1" parent="1">
          <mxGeometry x="-1" y="86" relative="1" as="geometry">
            <mxPoint x="870" y="380" as="sourcePoint" />
            <mxPoint x="870" y="390" as="targetPoint" />
            <mxPoint x="-36" y="-70" as="offset" />
          </mxGeometry>
        </mxCell>
        <mxCell id="fouqBStlk3huJytkR0tP-10" value="" style="endArrow=oval;html=1;fontSize=24;fontColor=#000000;endFill=1;endSize=24;strokeWidth=2;labelBackgroundColor=none;verticalAlign=bottom;fontStyle=1;strokeColor=#A6B727;rounded=0;labelPosition=center;verticalLabelPosition=top;align=center;opacity=25;" edge="1" parent="1">
          <mxGeometry x="-1" y="86" relative="1" as="geometry">
            <mxPoint x="740" y="410" as="sourcePoint" />
            <mxPoint x="740" y="420" as="targetPoint" />
            <mxPoint x="-36" y="-70" as="offset" />
          </mxGeometry>
        </mxCell>
        <mxCell id="fouqBStlk3huJytkR0tP-11" value="" style="endArrow=oval;html=1;fontSize=24;fontColor=#000000;endFill=1;endSize=24;strokeWidth=2;labelBackgroundColor=none;verticalAlign=bottom;fontStyle=1;strokeColor=#A6B727;rounded=0;labelPosition=center;verticalLabelPosition=top;align=center;opacity=50;" edge="1" parent="1">
          <mxGeometry x="-1" y="86" relative="1" as="geometry">
            <mxPoint x="800" y="380" as="sourcePoint" />
            <mxPoint x="800" y="390" as="targetPoint" />
            <mxPoint x="-36" y="-70" as="offset" />
          </mxGeometry>
        </mxCell>
      </root>
    </mxGraphModel>
  </diagram>
</mxfile>
